<svg xmlns="http://www.w3.org/2000/svg" width="31" height="30" viewBox="0 0 31 30" fill="none">
  <path d="M29.9139 12.3588C29.8563 12.0594 29.6886 11.7885 29.44 11.5934C29.1915 11.3983 28.8779 11.2914 28.554 11.2913H15.5357C15.3542 11.2913 15.1744 11.3248 15.0067 11.39C14.839 11.4553 14.6866 11.5509 14.5582 11.6714C14.4298 11.792 14.328 11.9351 14.2586 12.0927C14.1891 12.2502 14.1534 12.419 14.1535 12.5895V17.6113C14.1534 17.7818 14.1891 17.9506 14.2586 18.1082C14.328 18.2657 14.4298 18.4088 14.5582 18.5294C14.6866 18.65 14.839 18.7456 15.0067 18.8108C15.1744 18.876 15.3542 18.9096 15.5357 18.9095H21.0126C20.6223 19.5282 20.0874 20.0554 19.4481 20.4512C18.28 21.1468 16.9185 21.5015 15.5357 21.4705C14.1016 21.4551 12.7092 21.0156 11.5563 20.2143C10.4034 19.4131 9.54865 18.291 9.11359 17.0074L9.11319 17.0053C8.62904 15.6725 8.62904 14.2266 9.11319 12.8938L9.11352 12.8916C9.54889 11.6083 10.4037 10.4865 11.5566 9.68558C12.7095 8.88462 14.1018 8.44525 15.5357 8.42987C16.3324 8.41269 17.1249 8.54351 17.8677 8.81482C18.6104 9.08613 19.2888 9.49257 19.8638 10.0108C20.125 10.2452 20.4735 10.3743 20.8347 10.3706C21.1959 10.3668 21.5412 10.2304 21.7968 9.99054L25.7612 6.26699C25.8925 6.14379 25.9961 5.99699 26.0656 5.83535C26.1352 5.67372 26.1694 5.50057 26.1661 5.32625C26.1628 5.15193 26.1222 4.98002 26.0466 4.8208C25.971 4.66157 25.862 4.51829 25.7261 4.39952C22.9674 1.97014 19.3171 0.63408 15.5357 0.669637C12.7159 0.661801 9.94982 1.39407 7.54943 2.78386C5.14904 4.17365 3.20979 6.16569 1.95037 8.53534L1.94834 8.53764C0.880617 10.5262 0.326652 12.7231 0.331328 14.9502C0.334691 17.1764 0.888247 19.3716 1.94841 21.3627L1.95044 21.365C3.20986 23.7347 5.14909 25.7267 7.54947 27.1165C9.94985 28.5063 12.7159 29.2386 15.5357 29.2307C19.2474 29.319 22.8546 28.071 25.6185 25.7424L25.6195 25.7418L25.6206 25.7406L25.6209 25.7405L25.6209 25.7403C27.119 24.3867 28.2992 22.7538 29.0856 20.9464C29.872 19.1391 30.2472 17.1972 30.1873 15.2456C30.1879 14.2776 30.0964 13.3115 29.9139 12.3588ZM15.5357 3.2661C18.1219 3.24246 20.6471 4.0042 22.735 5.43785L20.7257 7.32437C19.2022 6.33389 17.3884 5.81285 15.5357 5.83341C13.8442 5.84158 12.1855 6.27297 10.7305 7.08319C9.27541 7.89342 8.07651 9.05319 7.25718 10.4431L5.7793 9.36725L4.9707 8.77828C6.08307 7.08778 7.63836 5.69341 9.488 4.72838C11.3376 3.76334 13.4198 3.25989 15.5357 3.2661ZM3.75845 18.7194C2.87477 16.2751 2.87477 13.6253 3.75845 11.181L6.22187 12.975C5.90691 14.2747 5.90691 15.6244 6.22187 16.9242L3.75845 18.7194ZM15.5357 26.6343C13.4198 26.6405 11.3376 26.137 9.48792 25.1719C7.63826 24.2068 6.08296 22.8124 4.97059 21.1219L5.49364 20.7408L7.25718 19.456C8.07615 20.8463 9.27493 22.0065 10.73 22.8169C12.1851 23.6274 13.844 24.0589 15.5357 24.067C17.1192 24.0845 18.6848 23.7505 20.1049 23.0923L22.4432 24.7973C20.3867 26.0418 17.9815 26.6814 15.5357 26.6343ZM24.5559 23.0502L24.3029 22.8658L22.3991 21.4777C23.3973 20.4647 24.0683 19.206 24.3337 17.8485C24.3709 17.6611 24.3636 17.4683 24.3124 17.2838C24.2612 17.0994 24.1674 16.9278 24.0377 16.7812C23.9079 16.6347 23.7454 16.5167 23.5616 16.4358C23.3779 16.3549 23.1774 16.3131 22.9745 16.3131H16.9179V13.8878H27.352C27.3993 14.3366 27.4229 14.7904 27.4229 15.2456C27.5037 18.0872 26.4851 20.86 24.5558 23.0502H24.5559Z" fill="white"/>
</svg>