<svg xmlns="http://www.w3.org/2000/svg" width="31" height="30" viewBox="0 0 31 30" fill="none">
  <path d="M23.46 5.61089C23.099 5.61089 22.7462 5.71142 22.4461 5.89975C22.146 6.08808 21.9121 6.35577 21.774 6.66896C21.6359 6.98214 21.5998 7.32677 21.6702 7.65924C21.7406 7.99172 21.9144 8.29712 22.1696 8.53682C22.4248 8.77653 22.75 8.93977 23.1039 9.0059C23.4579 9.07203 23.8248 9.03809 24.1583 8.90837C24.4917 8.77864 24.7767 8.55896 24.9773 8.2771C25.1778 7.99523 25.2848 7.66386 25.2848 7.32486C25.2848 6.87029 25.0925 6.43434 24.7503 6.1129C24.4081 5.79147 23.9439 5.61089 23.46 5.61089ZM30.4552 9.0674C30.4256 7.88233 30.1893 6.70984 29.7557 5.59661C29.369 4.64412 28.7672 3.78163 27.9917 3.0685C27.2386 2.33639 26.3182 1.77471 25.3 1.42595C24.1179 1.00626 22.8682 0.779225 21.6047 0.754644C19.9927 0.668945 19.4757 0.668945 15.3394 0.668945C11.2031 0.668945 10.686 0.668945 9.07408 0.754644C7.8106 0.779225 6.56087 1.00626 5.37876 1.42595C4.36244 1.77824 3.4428 2.33944 2.68711 3.0685C1.90764 3.77577 1.30962 4.64027 0.938298 5.59661C0.491455 6.7069 0.249738 7.88069 0.223566 9.0674C0.132324 10.5814 0.132324 11.067 0.132324 14.952C0.132324 18.837 0.132324 19.3227 0.223566 20.8367C0.249738 22.0234 0.491455 23.1972 0.938298 24.3075C1.30962 25.2638 1.90764 26.1283 2.68711 26.8356C3.4428 27.5646 4.36244 28.1258 5.37876 28.4781C6.56087 28.8978 7.8106 29.1248 9.07408 29.1494C10.686 29.2351 11.2031 29.2351 15.3394 29.2351C19.4757 29.2351 19.9927 29.2351 21.6047 29.1494C22.8682 29.1248 24.1179 28.8978 25.3 28.4781C26.3182 28.1294 27.2386 27.5677 27.9917 26.8356C28.7706 26.1251 29.373 25.2618 29.7557 24.3075C30.1893 23.1942 30.4256 22.0217 30.4552 20.8367C30.4552 19.3227 30.5464 18.837 30.5464 14.952C30.5464 11.067 30.5464 10.5814 30.4552 9.0674ZM27.7179 20.6653C27.7069 21.5719 27.532 22.4702 27.2009 23.3219C26.9581 23.9435 26.5681 24.5052 26.0604 24.9645C25.5671 25.4365 24.9704 25.8021 24.3115 26.0357C23.4048 26.3467 22.4483 26.5109 21.483 26.5213C19.9623 26.5927 19.3997 26.607 15.4002 26.607C11.4008 26.607 10.8381 26.607 9.31739 26.5213C8.31508 26.539 7.31704 26.394 6.36722 26.0928C5.73731 25.8473 5.16792 25.4826 4.69444 25.0216C4.1897 24.5628 3.80459 24.0006 3.56912 23.3791C3.19785 22.5151 2.99193 21.5964 2.96084 20.6653C2.96084 19.237 2.86959 18.7085 2.86959 14.952C2.86959 11.1956 2.86959 10.6671 2.96084 9.2388C2.96765 8.3119 3.14781 7.39334 3.49308 6.52501C3.7608 5.92214 4.17172 5.38473 4.69444 4.95387C5.15645 4.46277 5.72744 4.07274 6.36722 3.81122C7.29417 3.49706 8.27114 3.33285 9.25656 3.3256C10.7773 3.3256 11.3399 3.2399 15.3394 3.2399C19.3388 3.2399 19.9015 3.2399 21.4222 3.3256C22.3875 3.336 23.3439 3.50021 24.2507 3.81122C24.9418 4.05211 25.562 4.44375 26.0604 4.95387C26.5587 5.39262 26.9481 5.92902 27.2009 6.52501C27.5389 7.39476 27.7138 8.31294 27.7179 9.2388C27.794 10.6671 27.8092 11.1956 27.8092 14.952C27.8092 18.7085 27.794 19.237 27.7179 20.6653ZM15.3394 7.62481C13.7971 7.62763 12.2903 8.05977 11.0094 8.86661C9.72851 9.67345 8.73097 10.8188 8.14285 12.1579C7.55472 13.497 7.4024 14.9698 7.70513 16.3902C8.00785 17.8106 8.75204 19.1149 9.84367 20.1382C10.9353 21.1615 12.3254 21.8579 13.8382 22.1395C15.3511 22.4211 16.9189 22.2751 18.3435 21.7201C19.7681 21.1651 20.9856 20.226 21.8421 19.0213C22.6987 17.8167 23.1558 16.4006 23.1558 14.952C23.1578 13.9881 22.9569 13.0333 22.5646 12.1425C22.1723 11.2517 21.5964 10.4426 20.87 9.76163C20.1436 9.08067 19.281 8.54132 18.3318 8.17461C17.3827 7.80789 16.3657 7.62104 15.3394 7.62481ZM15.3394 19.7083C14.3378 19.7083 13.3588 19.4293 12.526 18.9067C11.6932 18.3841 11.0442 17.6413 10.6609 16.7722C10.2776 15.9031 10.1773 14.9468 10.3727 14.0241C10.5681 13.1015 11.0504 12.254 11.7586 11.5888C12.4668 10.9237 13.3691 10.4707 14.3515 10.2872C15.3338 10.1036 16.352 10.1978 17.2773 10.5578C18.2026 10.9178 18.9935 11.5274 19.5499 12.3096C20.1063 13.0918 20.4033 14.0113 20.4033 14.952C20.4033 15.5766 20.2724 16.1951 20.0179 16.7722C19.7634 17.3492 19.3904 17.8736 18.9201 18.3152C18.4499 18.7569 17.8917 19.1072 17.2773 19.3463C16.6629 19.5853 16.0044 19.7083 15.3394 19.7083Z" fill="white"/>
</svg>