<svg xmlns="http://www.w3.org/2000/svg" width="37" height="30" viewBox="0 0 37 30" fill="none">
  <path d="M36.0961 2.66578C36.0963 2.39625 36.0205 2.13149 35.8763 1.89846C35.7321 1.66543 35.5247 1.47245 35.2753 1.33919C35.0258 1.20592 34.7433 1.13712 34.4563 1.1398C34.1694 1.14248 33.8883 1.21653 33.6417 1.35443C32.6908 1.88604 31.667 2.29316 30.5988 2.56449C29.0732 1.33495 27.1275 0.662121 25.1173 0.668998C22.9119 0.671382 20.7939 1.47864 19.2104 2.92032C17.6269 4.362 16.7019 6.32524 16.6307 8.3955C12.2832 7.74432 8.34286 5.61301 5.56119 2.40797C5.39358 2.21698 5.17953 2.06665 4.9371 1.96965C4.69466 1.87265 4.43094 1.83183 4.16819 1.85063C3.90558 1.87094 3.65219 1.95102 3.42994 2.08396C3.20768 2.2169 3.02325 2.39868 2.89259 2.61359C2.22247 3.71197 1.8376 4.94331 1.76923 6.20762C1.70086 7.47192 1.95093 8.73355 2.49911 9.89005L2.49595 9.89303C2.24956 10.0356 2.04623 10.2351 1.9054 10.4725C1.76456 10.7099 1.69094 10.9773 1.69156 11.2491C1.68857 11.4733 1.70289 11.6974 1.7344 11.9197C1.90033 13.8397 2.80631 15.6369 4.28242 16.9743C4.18228 17.1535 4.12116 17.3496 4.10264 17.5512C4.08411 17.7528 4.10855 17.9559 4.17452 18.1485C4.81807 20.0317 6.18664 21.6216 8.01242 22.6071C6.15748 23.2808 4.15459 23.5157 2.18021 23.2911C1.81479 23.248 1.44463 23.3229 1.13045 23.5034C0.816276 23.6839 0.57674 23.9593 0.451136 24.2845C0.325533 24.6097 0.32132 24.9653 0.439188 25.293C0.557057 25.6207 0.790008 25.9011 1.09983 26.0881C4.49548 28.1423 8.44917 29.2344 12.4882 29.2339C17.0685 29.2823 21.5374 27.9076 25.1997 25.3236C28.8621 22.7397 31.5126 19.0913 32.739 14.9461C33.3126 13.1404 33.6054 11.2663 33.6085 9.38193C33.6085 9.28209 33.6085 9.17927 33.6069 9.07646C34.4551 8.21725 35.1122 7.20766 35.5397 6.10685C35.9671 5.00603 36.1563 3.83616 36.0961 2.66578ZM30.724 7.56692C30.4557 7.865 30.3199 8.2487 30.3449 8.63835C30.3607 8.89013 30.3591 9.14343 30.3591 9.38193C30.3558 10.9743 30.1073 12.5578 29.6214 14.0834C28.6198 17.6104 26.387 20.7197 23.2806 22.9133C20.1741 25.1069 16.3738 26.2579 12.4882 26.182C11.0924 26.1824 9.70146 26.0284 8.34408 25.7231C10.075 25.1991 11.6934 24.3914 13.1244 23.3373C13.3879 23.1424 13.5808 22.8757 13.6766 22.5737C13.7723 22.2718 13.7662 21.9494 13.6592 21.6508C13.5521 21.3522 13.3493 21.092 13.0785 20.906C12.8078 20.72 12.4824 20.6172 12.147 20.6118C10.7967 20.5921 9.50717 20.0808 8.55026 19.1857C8.79302 19.1425 9.03418 19.0889 9.27375 19.0248C9.62469 18.931 9.9318 18.7289 10.1456 18.4512C10.3595 18.1735 10.4676 17.8363 10.4525 17.4939C10.4375 17.1515 10.3002 16.8238 10.0628 16.5636C9.82538 16.3033 9.50161 16.1257 9.14365 16.0594C8.35982 15.914 7.62224 15.6008 6.98826 15.1441C6.35428 14.6874 5.84096 14.0996 5.48821 13.4262C5.78183 13.4639 6.07732 13.4873 6.37351 13.4963C6.72537 13.5013 7.06982 13.401 7.35702 13.21C7.64423 13.019 7.85931 12.7472 7.97118 12.4338C8.07837 12.1176 8.07285 11.7771 7.95546 11.4641C7.83808 11.1511 7.61522 10.8826 7.32069 10.6992C6.60609 10.2521 6.02072 9.64546 5.61702 8.93367C5.21332 8.22188 5.00388 7.42715 5.00748 6.62068C5.00748 6.51935 5.01064 6.41802 5.017 6.31818C8.65824 9.50775 13.3812 11.388 18.3537 11.6276C18.6047 11.6369 18.8546 11.5925 19.0847 11.4978C19.3147 11.403 19.5188 11.2604 19.6816 11.0807C19.8428 10.8993 19.9568 10.6852 20.0149 10.4553C20.073 10.2255 20.0735 9.98606 20.0163 9.75598C19.9234 9.39184 19.876 9.01877 19.8751 8.64431C19.8766 7.33894 20.4293 6.08742 21.4121 5.16439C22.3948 4.24135 23.7273 3.72218 25.1171 3.72081C25.8322 3.71901 26.5399 3.85646 27.1955 4.12448C27.8512 4.39251 28.4406 4.78529 28.9265 5.27803C29.1138 5.46737 29.3497 5.60854 29.6116 5.6881C29.8734 5.76766 30.1526 5.78298 30.4226 5.73259C31.0899 5.6106 31.7478 5.44631 32.3915 5.24084C31.9524 6.08464 31.3913 6.8674 30.724 7.56692Z" fill="white"/>
</svg>